%FSLAX33Y33*%
%MOMM*%
%ADD10C,0.15*%
%ADD11C,0.5*%
%ADD12C,0.5*%
%ADD13C,0.3*%
D10*
%LNtop silkscreen_traces*%
%LNtop silkscreen component b55fafcbb28c6848*%
G01*
X9775Y1275D02*
X8775Y1275D01*
X9775Y2950D02*
X8775Y2950D01*
G36*
X7463Y2601D02*
X7558Y2577D01*
X7540Y2522D01*
X7516Y2474D01*
X7486Y2433D01*
X7450Y2399D01*
X7410Y2372D01*
X7364Y2353D01*
X7315Y2342D01*
X7261Y2338D01*
X7206Y2341D01*
X7156Y2350D01*
X7112Y2364D01*
X7073Y2385D01*
X7039Y2411D01*
X7009Y2443D01*
X6984Y2479D01*
X6963Y2521D01*
X6946Y2567D01*
X6934Y2614D01*
X6927Y2663D01*
X6925Y2713D01*
X6927Y2767D01*
X6935Y2818D01*
X6949Y2865D01*
X6968Y2908D01*
X6991Y2947D01*
X7019Y2982D01*
X7052Y3011D01*
X7089Y3035D01*
X7130Y3054D01*
X7172Y3067D01*
X7216Y3075D01*
X7263Y3078D01*
X7314Y3075D01*
X7362Y3064D01*
X7405Y3047D01*
X7443Y3023D01*
X7477Y2993D01*
X7505Y2958D01*
X7528Y2916D01*
X7545Y2870D01*
X7452Y2848D01*
X7438Y2884D01*
X7422Y2915D01*
X7402Y2941D01*
X7380Y2961D01*
X7355Y2977D01*
X7326Y2988D01*
X7295Y2995D01*
X7261Y2997D01*
X7221Y2995D01*
X7185Y2987D01*
X7152Y2975D01*
X7123Y2957D01*
X7097Y2936D01*
X7076Y2911D01*
X7058Y2883D01*
X7045Y2851D01*
X7035Y2818D01*
X7028Y2784D01*
X7024Y2749D01*
X7022Y2714D01*
X7024Y2670D01*
X7029Y2628D01*
X7037Y2590D01*
X7049Y2554D01*
X7064Y2522D01*
X7083Y2495D01*
X7106Y2472D01*
X7132Y2453D01*
X7160Y2438D01*
X7190Y2427D01*
X7221Y2421D01*
X7253Y2419D01*
X7292Y2422D01*
X7327Y2430D01*
X7359Y2445D01*
X7388Y2465D01*
X7414Y2490D01*
X7434Y2522D01*
X7451Y2559D01*
X7463Y2601D01*
X7463Y2601D01*
X7639Y2539D02*
X7727Y2551D01*
X7736Y2516D01*
X7748Y2486D01*
X7762Y2462D01*
X7779Y2443D01*
X7798Y2429D01*
X7819Y2418D01*
X7842Y2412D01*
X7867Y2410D01*
X7897Y2413D01*
X7924Y2421D01*
X7949Y2434D01*
X7972Y2453D01*
X7991Y2476D01*
X8004Y2501D01*
X8012Y2529D01*
X8015Y2559D01*
X8012Y2588D01*
X8005Y2615D01*
X7992Y2638D01*
X7975Y2659D01*
X7954Y2677D01*
X7930Y2689D01*
X7904Y2696D01*
X7875Y2699D01*
X7861Y2698D01*
X7847Y2696D01*
X7830Y2693D01*
X7813Y2689D01*
X7822Y2766D01*
X7826Y2766D01*
X7830Y2765D01*
X7834Y2765D01*
X7836Y2765D01*
X7864Y2767D01*
X7890Y2772D01*
X7914Y2782D01*
X7938Y2794D01*
X7957Y2811D01*
X7971Y2832D01*
X7980Y2856D01*
X7982Y2885D01*
X7980Y2908D01*
X7974Y2929D01*
X7964Y2948D01*
X7950Y2965D01*
X7932Y2979D01*
X7912Y2989D01*
X7890Y2994D01*
X7865Y2996D01*
X7841Y2994D01*
X7818Y2988D01*
X7798Y2978D01*
X7780Y2964D01*
X7764Y2946D01*
X7752Y2924D01*
X7742Y2898D01*
X7736Y2868D01*
X7648Y2883D01*
X7659Y2925D01*
X7674Y2962D01*
X7695Y2993D01*
X7721Y3020D01*
X7752Y3041D01*
X7785Y3057D01*
X7823Y3066D01*
X7863Y3069D01*
X7892Y3067D01*
X7920Y3062D01*
X7946Y3055D01*
X7971Y3044D01*
X7994Y3030D01*
X8015Y3014D01*
X8032Y2996D01*
X8047Y2975D01*
X8058Y2953D01*
X8066Y2930D01*
X8071Y2907D01*
X8073Y2883D01*
X8071Y2860D01*
X8067Y2838D01*
X8059Y2818D01*
X8048Y2798D01*
X8034Y2780D01*
X8017Y2764D01*
X7997Y2750D01*
X7974Y2738D01*
X8004Y2728D01*
X8031Y2715D01*
X8053Y2698D01*
X8073Y2677D01*
X8088Y2652D01*
X8099Y2625D01*
X8106Y2595D01*
X8108Y2561D01*
X8104Y2516D01*
X8091Y2475D01*
X8069Y2437D01*
X8040Y2402D01*
X8003Y2374D01*
X7962Y2354D01*
X7917Y2341D01*
X7867Y2337D01*
X7822Y2341D01*
X7780Y2351D01*
X7743Y2369D01*
X7710Y2393D01*
X7682Y2424D01*
X7661Y2458D01*
X7647Y2496D01*
X7639Y2539D01*
X7639Y2539D01*
G37*
%LNtop silkscreen component 6d26b2c4715c09e4*%
X5250Y7890D02*
X5250Y10790D01*
X5950Y10790*
X5950Y7890*
X5250Y7890*
D11*
X3375Y10265D03*
G36*
X3084Y8195D02*
X3084Y8290D01*
X3498Y8290D01*
X3549Y8288D01*
X3595Y8283D01*
X3635Y8276D01*
X3669Y8265D01*
X3699Y8250D01*
X3727Y8231D01*
X3751Y8206D01*
X3772Y8177D01*
X3790Y8143D01*
X3802Y8103D01*
X3810Y8059D01*
X3812Y8010D01*
X3810Y7962D01*
X3804Y7918D01*
X3793Y7879D01*
X3778Y7845D01*
X3758Y7815D01*
X3735Y7790D01*
X3708Y7770D01*
X3677Y7754D01*
X3641Y7742D01*
X3599Y7733D01*
X3552Y7728D01*
X3498Y7727D01*
X3084Y7727D01*
X3084Y7821D01*
X3497Y7821D01*
X3541Y7822D01*
X3578Y7826D01*
X3610Y7831D01*
X3635Y7839D01*
X3656Y7849D01*
X3674Y7862D01*
X3690Y7879D01*
X3703Y7898D01*
X3713Y7920D01*
X3721Y7945D01*
X3725Y7972D01*
X3727Y8001D01*
X3724Y8050D01*
X3715Y8091D01*
X3700Y8124D01*
X3679Y8150D01*
X3650Y8170D01*
X3610Y8184D01*
X3559Y8192D01*
X3497Y8195D01*
X3084Y8195D01*
X3084Y8195D01*
X3800Y8743D02*
X3800Y8655D01*
X3240Y8655D01*
X3255Y8638D01*
X3270Y8618D01*
X3285Y8596D01*
X3300Y8572D01*
X3315Y8546D01*
X3327Y8523D01*
X3337Y8500D01*
X3346Y8479D01*
X3261Y8479D01*
X3243Y8515D01*
X3223Y8548D01*
X3201Y8579D01*
X3177Y8608D01*
X3152Y8633D01*
X3128Y8655D01*
X3105Y8673D01*
X3081Y8686D01*
X3081Y8743D01*
X3800Y8743D01*
X3800Y8743D01*
G37*
%LNtop silkscreen component 25d22eade9dc4c92*%
D10*
X0755Y2750D02*
X2355Y2750D01*
X2355Y1300D02*
X0755Y1300D01*
G36*
X3323Y2651D02*
X3418Y2627D01*
X3400Y2572D01*
X3376Y2524D01*
X3347Y2483D01*
X3311Y2449D01*
X3270Y2422D01*
X3225Y2403D01*
X3175Y2392D01*
X3122Y2388D01*
X3066Y2391D01*
X3017Y2400D01*
X2972Y2414D01*
X2933Y2435D01*
X2899Y2461D01*
X2870Y2493D01*
X2844Y2529D01*
X2823Y2571D01*
X2806Y2617D01*
X2795Y2664D01*
X2788Y2713D01*
X2785Y2763D01*
X2788Y2817D01*
X2796Y2868D01*
X2809Y2915D01*
X2828Y2958D01*
X2852Y2997D01*
X2880Y3032D01*
X2912Y3061D01*
X2949Y3085D01*
X2990Y3104D01*
X3032Y3117D01*
X3077Y3125D01*
X3123Y3128D01*
X3175Y3125D01*
X3222Y3114D01*
X3265Y3097D01*
X3304Y3073D01*
X3338Y3043D01*
X3366Y3008D01*
X3389Y2966D01*
X3406Y2920D01*
X3313Y2898D01*
X3299Y2934D01*
X3282Y2965D01*
X3263Y2991D01*
X3240Y3011D01*
X3215Y3027D01*
X3187Y3038D01*
X3155Y3045D01*
X3121Y3047D01*
X3082Y3045D01*
X3045Y3037D01*
X3013Y3025D01*
X2983Y3007D01*
X2958Y2986D01*
X2936Y2961D01*
X2919Y2933D01*
X2905Y2901D01*
X2895Y2868D01*
X2888Y2834D01*
X2884Y2799D01*
X2883Y2764D01*
X2884Y2720D01*
X2889Y2678D01*
X2898Y2640D01*
X2909Y2604D01*
X2925Y2572D01*
X2943Y2545D01*
X2966Y2522D01*
X2992Y2503D01*
X3021Y2488D01*
X3051Y2477D01*
X3082Y2471D01*
X3114Y2469D01*
X3152Y2472D01*
X3187Y2480D01*
X3219Y2495D01*
X3249Y2515D01*
X3274Y2540D01*
X3295Y2572D01*
X3311Y2609D01*
X3323Y2651D01*
X3323Y2651D01*
X3961Y2484D02*
X3961Y2400D01*
X3488Y2400D01*
X3488Y2416D01*
X3490Y2431D01*
X3493Y2446D01*
X3498Y2461D01*
X3508Y2485D01*
X3522Y2509D01*
X3537Y2533D01*
X3556Y2556D01*
X3578Y2581D01*
X3605Y2607D01*
X3636Y2635D01*
X3671Y2665D01*
X3725Y2710D01*
X3769Y2750D01*
X3803Y2786D01*
X3829Y2816D01*
X3847Y2844D01*
X3859Y2871D01*
X3867Y2897D01*
X3870Y2922D01*
X3867Y2947D01*
X3860Y2970D01*
X3849Y2991D01*
X3832Y3010D01*
X3812Y3026D01*
X3789Y3037D01*
X3763Y3044D01*
X3735Y3046D01*
X3705Y3044D01*
X3678Y3036D01*
X3654Y3025D01*
X3633Y3008D01*
X3617Y2987D01*
X3605Y2962D01*
X3597Y2934D01*
X3595Y2902D01*
X3504Y2912D01*
X3512Y2959D01*
X3526Y3001D01*
X3547Y3036D01*
X3574Y3066D01*
X3607Y3089D01*
X3645Y3106D01*
X3688Y3115D01*
X3737Y3119D01*
X3786Y3115D01*
X3829Y3104D01*
X3867Y3087D01*
X3900Y3062D01*
X3926Y3031D01*
X3945Y2998D01*
X3956Y2961D01*
X3960Y2920D01*
X3959Y2899D01*
X3956Y2877D01*
X3950Y2856D01*
X3942Y2836D01*
X3932Y2815D01*
X3919Y2793D01*
X3903Y2771D01*
X3884Y2748D01*
X3860Y2723D01*
X3830Y2694D01*
X3793Y2660D01*
X3749Y2622D01*
X3713Y2592D01*
X3684Y2566D01*
X3662Y2547D01*
X3647Y2532D01*
X3636Y2520D01*
X3626Y2508D01*
X3618Y2496D01*
X3610Y2484D01*
X3961Y2484D01*
X3961Y2484D01*
G37*
%LNtop silkscreen component 86f5d3f90d16cd86*%
X4400Y5825D02*
X6800Y5825D01*
X4400Y1425D02*
X6800Y1425D01*
D12*
X4000Y2025D03*
G36*
X4978Y0509D02*
X4883Y0509D01*
X4883Y0923D01*
X4885Y0974D01*
X4890Y1020D01*
X4897Y1060D01*
X4908Y1094D01*
X4922Y1124D01*
X4942Y1152D01*
X4967Y1176D01*
X4996Y1197D01*
X5030Y1215D01*
X5070Y1227D01*
X5114Y1235D01*
X5163Y1237D01*
X5211Y1235D01*
X5255Y1229D01*
X5293Y1218D01*
X5328Y1203D01*
X5357Y1183D01*
X5383Y1160D01*
X5403Y1133D01*
X5419Y1102D01*
X5431Y1066D01*
X5440Y1024D01*
X5445Y0977D01*
X5446Y0923D01*
X5446Y0509D01*
X5352Y0509D01*
X5352Y0922D01*
X5351Y0966D01*
X5347Y1003D01*
X5342Y1035D01*
X5334Y1060D01*
X5324Y1081D01*
X5311Y1099D01*
X5294Y1115D01*
X5275Y1128D01*
X5252Y1138D01*
X5228Y1146D01*
X5201Y1150D01*
X5171Y1152D01*
X5123Y1149D01*
X5082Y1140D01*
X5049Y1125D01*
X5023Y1104D01*
X5003Y1075D01*
X4989Y1035D01*
X4981Y0984D01*
X4978Y0922D01*
X4978Y0509D01*
X4978Y0509D01*
X4299Y1141D02*
X4299Y1225D01*
X4773Y1225D01*
X4772Y1209D01*
X4770Y1194D01*
X4767Y1179D01*
X4762Y1164D01*
X4752Y1140D01*
X4739Y1116D01*
X4723Y1092D01*
X4704Y1069D01*
X4682Y1044D01*
X4656Y1018D01*
X4625Y0990D01*
X4589Y0960D01*
X4536Y0915D01*
X4492Y0875D01*
X4457Y0839D01*
X4432Y0809D01*
X4414Y0781D01*
X4401Y0754D01*
X4393Y0728D01*
X4391Y0703D01*
X4393Y0678D01*
X4400Y0655D01*
X4412Y0634D01*
X4428Y0615D01*
X4448Y0599D01*
X4471Y0588D01*
X4497Y0581D01*
X4525Y0579D01*
X4556Y0581D01*
X4583Y0589D01*
X4606Y0600D01*
X4627Y0617D01*
X4644Y0638D01*
X4656Y0663D01*
X4663Y0691D01*
X4666Y0723D01*
X4756Y0713D01*
X4748Y0666D01*
X4734Y0624D01*
X4713Y0589D01*
X4686Y0559D01*
X4653Y0536D01*
X4615Y0519D01*
X4572Y0510D01*
X4524Y0506D01*
X4475Y0510D01*
X4431Y0521D01*
X4393Y0538D01*
X4360Y0563D01*
X4334Y0594D01*
X4315Y0627D01*
X4304Y0664D01*
X4300Y0705D01*
X4301Y0726D01*
X4305Y0748D01*
X4310Y0769D01*
X4318Y0789D01*
X4328Y0810D01*
X4341Y0832D01*
X4357Y0854D01*
X4376Y0877D01*
X4400Y0902D01*
X4431Y0931D01*
X4468Y0965D01*
X4512Y1003D01*
X4548Y1033D01*
X4577Y1059D01*
X4599Y1078D01*
X4613Y1093D01*
X4624Y1105D01*
X4634Y1117D01*
X4643Y1129D01*
X4650Y1141D01*
X4299Y1141D01*
X4299Y1141D01*
G37*
%LNtop silkscreen component 83d01b01c9f3d031*%
D10*
X6135Y7150D02*
X6135Y6500D01*
X4715Y6500*
X4715Y7150*
X6135Y7150*
D13*
X6250Y6825D03*
G36*
X6701Y6862D02*
X6677Y6767D01*
X6622Y6785D01*
X6574Y6809D01*
X6533Y6838D01*
X6499Y6874D01*
X6472Y6915D01*
X6453Y6960D01*
X6442Y7010D01*
X6438Y7063D01*
X6441Y7118D01*
X6450Y7168D01*
X6464Y7213D01*
X6485Y7252D01*
X6511Y7286D01*
X6543Y7315D01*
X6579Y7341D01*
X6621Y7362D01*
X6667Y7378D01*
X6714Y7390D01*
X6763Y7397D01*
X6813Y7400D01*
X6867Y7397D01*
X6918Y7389D01*
X6965Y7376D01*
X7008Y7357D01*
X7047Y7333D01*
X7082Y7305D01*
X7111Y7273D01*
X7135Y7235D01*
X7154Y7195D01*
X7167Y7153D01*
X7175Y7108D01*
X7178Y7062D01*
X7175Y7010D01*
X7164Y6963D01*
X7147Y6920D01*
X7123Y6881D01*
X7093Y6847D01*
X7058Y6819D01*
X7016Y6796D01*
X6970Y6779D01*
X6948Y6872D01*
X6984Y6886D01*
X7015Y6903D01*
X7041Y6922D01*
X7061Y6945D01*
X7077Y6970D01*
X7088Y6998D01*
X7095Y7029D01*
X7097Y7064D01*
X7095Y7103D01*
X7087Y7140D01*
X7075Y7172D01*
X7057Y7202D01*
X7036Y7227D01*
X7011Y7249D01*
X6983Y7266D01*
X6951Y7280D01*
X6918Y7289D01*
X6884Y7296D01*
X6849Y7301D01*
X6814Y7302D01*
X6770Y7300D01*
X6728Y7295D01*
X6690Y7287D01*
X6654Y7275D01*
X6622Y7260D01*
X6595Y7241D01*
X6572Y7219D01*
X6553Y7193D01*
X6538Y7164D01*
X6527Y7134D01*
X6521Y7103D01*
X6519Y7071D01*
X6522Y7033D01*
X6530Y6998D01*
X6545Y6965D01*
X6565Y6936D01*
X6590Y6911D01*
X6622Y6890D01*
X6659Y6874D01*
X6701Y6862D01*
X6701Y6862D01*
X6450Y6355D02*
X6450Y6443D01*
X7010Y6443D01*
X6995Y6460D01*
X6980Y6479D01*
X6965Y6501D01*
X6950Y6526D01*
X6935Y6551D01*
X6923Y6575D01*
X6913Y6597D01*
X6904Y6618D01*
X6989Y6618D01*
X7007Y6583D01*
X7027Y6549D01*
X7049Y6518D01*
X7073Y6490D01*
X7098Y6464D01*
X7122Y6442D01*
X7145Y6425D01*
X7169Y6411D01*
X7169Y6355D01*
X6450Y6355D01*
X6450Y6355D01*
G37*
M02*