%FSLAX33Y33*%
%MOMM*%
%LNbottom silkscreen_traces*%
%LNtext*%
G36*
G01*
X2243Y0400D02*
X2521Y1116D01*
X2418Y1116D01*
X2232Y0596D01*
X2221Y0565D01*
X2211Y0535D01*
X2202Y0506D01*
X2194Y0479D01*
X2186Y0508D01*
X2176Y0537D01*
X2167Y0567D01*
X2156Y0596D01*
X1962Y1116D01*
X1866Y1116D01*
X2146Y0400D01*
X2243Y0400D01*
X2243Y0400D01*
X1270Y0651D02*
X1175Y0627D01*
X1193Y0572D01*
X1217Y0524D01*
X1247Y0483D01*
X1283Y0449D01*
X1323Y0422D01*
X1369Y0403D01*
X1418Y0392D01*
X1472Y0388D01*
X1527Y0391D01*
X1577Y0400D01*
X1621Y0414D01*
X1660Y0435D01*
X1694Y0461D01*
X1724Y0493D01*
X1749Y0529D01*
X1770Y0571D01*
X1787Y0617D01*
X1799Y0664D01*
X1806Y0713D01*
X1808Y0763D01*
X1806Y0817D01*
X1798Y0868D01*
X1784Y0915D01*
X1765Y0958D01*
X1742Y0997D01*
X1714Y1032D01*
X1681Y1061D01*
X1644Y1085D01*
X1603Y1104D01*
X1561Y1117D01*
X1517Y1125D01*
X1470Y1128D01*
X1419Y1125D01*
X1371Y1114D01*
X1328Y1097D01*
X1290Y1073D01*
X1256Y1043D01*
X1227Y1008D01*
X1205Y0966D01*
X1188Y0920D01*
X1281Y0898D01*
X1295Y0934D01*
X1311Y0965D01*
X1331Y0991D01*
X1353Y1011D01*
X1378Y1027D01*
X1407Y1038D01*
X1438Y1045D01*
X1472Y1047D01*
X1512Y1045D01*
X1548Y1037D01*
X1581Y1025D01*
X1610Y1007D01*
X1636Y0986D01*
X1657Y0961D01*
X1675Y0933D01*
X1688Y0901D01*
X1698Y0868D01*
X1705Y0834D01*
X1709Y0799D01*
X1711Y0764D01*
X1709Y0720D01*
X1704Y0678D01*
X1696Y0640D01*
X1684Y0604D01*
X1669Y0572D01*
X1650Y0545D01*
X1627Y0522D01*
X1601Y0503D01*
X1573Y0488D01*
X1543Y0477D01*
X1512Y0471D01*
X1480Y0469D01*
X1441Y0472D01*
X1406Y0480D01*
X1374Y0495D01*
X1345Y0515D01*
X1319Y0540D01*
X1299Y0572D01*
X1282Y0609D01*
X1270Y0651D01*
X1270Y0651D01*
X0548Y0651D02*
X0453Y0627D01*
X0471Y0572D01*
X0495Y0524D01*
X0525Y0483D01*
X0560Y0449D01*
X0601Y0422D01*
X0646Y0403D01*
X0696Y0392D01*
X0750Y0388D01*
X0805Y0391D01*
X0855Y0400D01*
X0899Y0414D01*
X0938Y0435D01*
X0972Y0461D01*
X1002Y0493D01*
X1027Y0529D01*
X1048Y0571D01*
X1065Y0617D01*
X1077Y0664D01*
X1084Y0713D01*
X1086Y0763D01*
X1083Y0817D01*
X1075Y0868D01*
X1062Y0915D01*
X1043Y0958D01*
X1020Y0997D01*
X0992Y1032D01*
X0959Y1061D01*
X0922Y1085D01*
X0881Y1104D01*
X0839Y1117D01*
X0794Y1125D01*
X0748Y1128D01*
X0697Y1125D01*
X0649Y1114D01*
X0606Y1097D01*
X0567Y1073D01*
X0534Y1043D01*
X0505Y1008D01*
X0483Y0966D01*
X0465Y0920D01*
X0559Y0898D01*
X0573Y0934D01*
X0589Y0965D01*
X0609Y0991D01*
X0631Y1011D01*
X0656Y1027D01*
X0684Y1038D01*
X0716Y1045D01*
X0750Y1047D01*
X0790Y1045D01*
X0826Y1037D01*
X0859Y1025D01*
X0888Y1007D01*
X0914Y0986D01*
X0935Y0961D01*
X0953Y0933D01*
X0966Y0901D01*
X0976Y0868D01*
X0983Y0834D01*
X0987Y0799D01*
X0988Y0764D01*
X0987Y0720D01*
X0982Y0678D01*
X0973Y0640D01*
X0962Y0604D01*
X0947Y0572D01*
X0928Y0545D01*
X0905Y0522D01*
X0879Y0503D01*
X0850Y0488D01*
X0821Y0477D01*
X0790Y0471D01*
X0757Y0469D01*
X0719Y0472D01*
X0684Y0480D01*
X0652Y0495D01*
X0623Y0515D01*
X0597Y0540D01*
X0576Y0572D01*
X0560Y0609D01*
X0548Y0651D01*
X0548Y0651D01*
X2213Y3256D02*
X2213Y3340D01*
X1910Y3340D01*
X1910Y3075D01*
X1945Y3049D01*
X1981Y3026D01*
X2017Y3007D01*
X2054Y2991D01*
X2091Y2979D01*
X2129Y2970D01*
X2167Y2965D01*
X2206Y2963D01*
X2258Y2966D01*
X2307Y2974D01*
X2353Y2988D01*
X2398Y3008D01*
X2438Y3033D01*
X2473Y3063D01*
X2503Y3098D01*
X2528Y3139D01*
X2547Y3183D01*
X2561Y3229D01*
X2569Y3278D01*
X2572Y3329D01*
X2569Y3381D01*
X2561Y3431D01*
X2547Y3478D01*
X2528Y3525D01*
X2504Y3567D01*
X2475Y3603D01*
X2441Y3634D01*
X2402Y3659D01*
X2360Y3678D01*
X2314Y3692D01*
X2265Y3700D01*
X2213Y3703D01*
X2175Y3701D01*
X2139Y3697D01*
X2105Y3689D01*
X2073Y3678D01*
X2043Y3664D01*
X2017Y3648D01*
X1994Y3629D01*
X1975Y3608D01*
X1958Y3584D01*
X1943Y3556D01*
X1931Y3525D01*
X1920Y3491D01*
X2006Y3467D01*
X2014Y3493D01*
X2024Y3516D01*
X2034Y3536D01*
X2046Y3553D01*
X2059Y3568D01*
X2075Y3581D01*
X2093Y3593D01*
X2114Y3603D01*
X2137Y3611D01*
X2161Y3617D01*
X2186Y3621D01*
X2213Y3622D01*
X2244Y3621D01*
X2273Y3617D01*
X2300Y3611D01*
X2325Y3602D01*
X2348Y3592D01*
X2368Y3579D01*
X2386Y3566D01*
X2402Y3550D01*
X2415Y3534D01*
X2427Y3516D01*
X2438Y3498D01*
X2447Y3479D01*
X2459Y3445D01*
X2467Y3410D01*
X2472Y3373D01*
X2474Y3335D01*
X2472Y3289D01*
X2466Y3247D01*
X2456Y3209D01*
X2441Y3175D01*
X2423Y3145D01*
X2401Y3119D01*
X2375Y3097D01*
X2345Y3079D01*
X2313Y3066D01*
X2280Y3056D01*
X2246Y3050D01*
X2211Y3048D01*
X2181Y3050D01*
X2151Y3054D01*
X2121Y3062D01*
X2091Y3072D01*
X2064Y3084D01*
X2040Y3096D01*
X2019Y3109D01*
X2002Y3122D01*
X2002Y3256D01*
X2213Y3256D01*
X2213Y3256D01*
X1771Y2975D02*
X1771Y3691D01*
X1674Y3691D01*
X1298Y3129D01*
X1298Y3691D01*
X1207Y3691D01*
X1207Y2975D01*
X1304Y2975D01*
X1680Y3538D01*
X1680Y2975D01*
X1771Y2975D01*
X1771Y2975D01*
X1048Y2975D02*
X1048Y3691D01*
X0803Y3691D01*
X0803Y3606D01*
X0953Y3606D01*
X0953Y3059D01*
X0953Y3059D01*
X0800Y3059D01*
X0767Y3060D01*
X0737Y3063D01*
X0711Y3067D01*
X0689Y3073D01*
X0670Y3080D01*
X0653Y3089D01*
X0638Y3098D01*
X0625Y3110D01*
X0609Y3128D01*
X0595Y3149D01*
X0583Y3173D01*
X0572Y3200D01*
X0564Y3230D01*
X0558Y3263D01*
X0555Y3299D01*
X0554Y3338D01*
X0556Y3391D01*
X0563Y3438D01*
X0574Y3477D01*
X0591Y3511D01*
X0610Y3539D01*
X0631Y3561D01*
X0655Y3579D01*
X0680Y3592D01*
X0702Y3598D01*
X0730Y3603D01*
X0763Y3605D01*
X0803Y3606D01*
X0803Y3691D01*
X0801Y3691D01*
X0762Y3690D01*
X0728Y3688D01*
X0698Y3685D01*
X0674Y3681D01*
X0644Y3672D01*
X0617Y3661D01*
X0592Y3646D01*
X0569Y3629D01*
X0542Y3604D01*
X0519Y3575D01*
X0500Y3543D01*
X0484Y3507D01*
X0472Y3468D01*
X0463Y3427D01*
X0458Y3383D01*
X0456Y3337D01*
X0457Y3297D01*
X0461Y3260D01*
X0467Y3225D01*
X0475Y3192D01*
X0485Y3162D01*
X0497Y3135D01*
X0510Y3110D01*
X0524Y3088D01*
X0539Y3069D01*
X0555Y3051D01*
X0572Y3036D01*
X0589Y3023D01*
X0608Y3012D01*
X0628Y3002D01*
X0650Y2994D01*
X0675Y2987D01*
X0700Y2982D01*
X0728Y2978D01*
X0758Y2976D01*
X0790Y2975D01*
X1048Y2975D01*
X1048Y2975D01*
X2505Y5705D02*
X2416Y5713D01*
X2411Y5687D01*
X2405Y5664D01*
X2397Y5643D01*
X2386Y5625D01*
X2373Y5608D01*
X2357Y5594D01*
X2337Y5580D01*
X2314Y5569D01*
X2289Y5560D01*
X2262Y5553D01*
X2234Y5549D01*
X2204Y5548D01*
X2178Y5549D01*
X2153Y5552D01*
X2130Y5557D01*
X2109Y5564D01*
X2089Y5573D01*
X2072Y5583D01*
X2058Y5595D01*
X2047Y5608D01*
X2038Y5622D01*
X2032Y5637D01*
X2028Y5653D01*
X2027Y5669D01*
X2028Y5686D01*
X2031Y5701D01*
X2038Y5715D01*
X2046Y5728D01*
X2057Y5740D01*
X2072Y5751D01*
X2090Y5761D01*
X2111Y5770D01*
X2129Y5777D01*
X2157Y5785D01*
X2193Y5794D01*
X2238Y5805D01*
X2284Y5817D01*
X2322Y5828D01*
X2353Y5839D01*
X2376Y5850D01*
X2400Y5864D01*
X2421Y5880D01*
X2438Y5898D01*
X2453Y5917D01*
X2464Y5937D01*
X2471Y5959D01*
X2476Y5982D01*
X2478Y6006D01*
X2476Y6032D01*
X2470Y6058D01*
X2460Y6083D01*
X2447Y6107D01*
X2430Y6129D01*
X2409Y6149D01*
X2385Y6165D01*
X2357Y6179D01*
X2327Y6189D01*
X2295Y6197D01*
X2261Y6202D01*
X2226Y6203D01*
X2187Y6201D01*
X2151Y6197D01*
X2117Y6189D01*
X2085Y6177D01*
X2057Y6163D01*
X2032Y6146D01*
X2010Y6125D01*
X1992Y6102D01*
X1977Y6076D01*
X1967Y6049D01*
X1960Y6020D01*
X1957Y5989D01*
X2048Y5982D01*
X2053Y6014D01*
X2064Y6042D01*
X2078Y6065D01*
X2097Y6085D01*
X2121Y6100D01*
X2149Y6111D01*
X2183Y6117D01*
X2222Y6120D01*
X2262Y6118D01*
X2296Y6112D01*
X2325Y6102D01*
X2347Y6088D01*
X2364Y6071D01*
X2377Y6053D01*
X2384Y6034D01*
X2386Y6012D01*
X2385Y5994D01*
X2379Y5977D01*
X2371Y5962D01*
X2359Y5949D01*
X2339Y5936D01*
X2309Y5923D01*
X2268Y5911D01*
X2216Y5898D01*
X2163Y5885D01*
X2118Y5873D01*
X2083Y5862D01*
X2057Y5852D01*
X2028Y5837D01*
X2003Y5819D01*
X1982Y5800D01*
X1965Y5779D01*
X1952Y5756D01*
X1943Y5731D01*
X1937Y5705D01*
X1935Y5677D01*
X1937Y5649D01*
X1943Y5622D01*
X1954Y5595D01*
X1968Y5569D01*
X1986Y5546D01*
X2008Y5525D01*
X2033Y5506D01*
X2062Y5491D01*
X2094Y5479D01*
X2127Y5470D01*
X2163Y5465D01*
X2200Y5463D01*
X2247Y5465D01*
X2289Y5470D01*
X2328Y5479D01*
X2363Y5491D01*
X2394Y5507D01*
X2421Y5527D01*
X2445Y5550D01*
X2466Y5576D01*
X2482Y5606D01*
X2494Y5637D01*
X2502Y5670D01*
X2505Y5705D01*
X2505Y5705D01*
X1806Y5475D02*
X1806Y6191D01*
X1561Y6191D01*
X1561Y6106D01*
X1711Y6106D01*
X1711Y5559D01*
X1711Y5559D01*
X1558Y5559D01*
X1525Y5560D01*
X1495Y5563D01*
X1469Y5567D01*
X1447Y5573D01*
X1428Y5580D01*
X1411Y5589D01*
X1396Y5598D01*
X1383Y5610D01*
X1367Y5628D01*
X1353Y5649D01*
X1341Y5673D01*
X1331Y5700D01*
X1322Y5730D01*
X1316Y5763D01*
X1313Y5799D01*
X1312Y5838D01*
X1314Y5891D01*
X1321Y5938D01*
X1332Y5977D01*
X1349Y6011D01*
X1368Y6039D01*
X1389Y6061D01*
X1413Y6079D01*
X1438Y6092D01*
X1460Y6098D01*
X1488Y6103D01*
X1521Y6105D01*
X1561Y6106D01*
X1561Y6191D01*
X1559Y6191D01*
X1520Y6190D01*
X1486Y6188D01*
X1456Y6185D01*
X1432Y6181D01*
X1402Y6172D01*
X1375Y6161D01*
X1350Y6146D01*
X1327Y6129D01*
X1300Y6104D01*
X1277Y6075D01*
X1258Y6043D01*
X1242Y6007D01*
X1230Y5968D01*
X1221Y5927D01*
X1216Y5883D01*
X1214Y5837D01*
X1215Y5797D01*
X1219Y5760D01*
X1225Y5725D01*
X1233Y5692D01*
X1243Y5662D01*
X1255Y5635D01*
X1268Y5610D01*
X1282Y5588D01*
X1297Y5569D01*
X1313Y5551D01*
X1330Y5536D01*
X1347Y5523D01*
X1366Y5512D01*
X1386Y5502D01*
X1408Y5494D01*
X1433Y5487D01*
X1459Y5482D01*
X1486Y5478D01*
X1516Y5476D01*
X1548Y5475D01*
X1806Y5475D01*
X1806Y5475D01*
X1162Y5475D02*
X0906Y6142D01*
X0839Y6116D01*
X0846Y6081D01*
X0855Y6047D01*
X0865Y6013D01*
X0877Y5979D01*
X0956Y5769D01*
X0956Y5769D01*
X0713Y5769D01*
X0788Y5967D01*
X0804Y6010D01*
X0818Y6049D01*
X0829Y6085D01*
X0839Y6116D01*
X0906Y6142D01*
X0887Y6191D01*
X0785Y6191D01*
X0492Y5475D01*
X0600Y5475D01*
X0684Y5692D01*
X0983Y5692D01*
X1062Y5475D01*
X1162Y5475D01*
X1162Y5475D01*
X10321Y8100D02*
X10044Y8473D01*
X10288Y8816D01*
X10175Y8816D01*
X10045Y8632D01*
X10026Y8605D01*
X10011Y8582D01*
X9998Y8561D01*
X9988Y8544D01*
X9975Y8564D01*
X9961Y8584D01*
X9947Y8605D01*
X9931Y8626D01*
X9787Y8816D01*
X9684Y8816D01*
X9935Y8478D01*
X9664Y8100D01*
X9782Y8100D01*
X9962Y8355D01*
X9969Y8367D01*
X9977Y8378D01*
X9985Y8391D01*
X9993Y8403D01*
X10004Y8385D01*
X10013Y8370D01*
X10021Y8358D01*
X10027Y8350D01*
X10207Y8100D01*
X10321Y8100D01*
X10321Y8100D01*
X9613Y8330D02*
X9524Y8338D01*
X9519Y8312D01*
X9513Y8289D01*
X9505Y8268D01*
X9494Y8250D01*
X9481Y8233D01*
X9465Y8219D01*
X9445Y8205D01*
X9422Y8194D01*
X9397Y8185D01*
X9370Y8178D01*
X9342Y8174D01*
X9312Y8173D01*
X9286Y8174D01*
X9261Y8177D01*
X9238Y8182D01*
X9217Y8189D01*
X9197Y8198D01*
X9180Y8208D01*
X9166Y8220D01*
X9155Y8233D01*
X9146Y8247D01*
X9140Y8262D01*
X9136Y8278D01*
X9135Y8294D01*
X9136Y8311D01*
X9139Y8326D01*
X9146Y8340D01*
X9154Y8353D01*
X9165Y8365D01*
X9180Y8376D01*
X9198Y8386D01*
X9219Y8395D01*
X9237Y8402D01*
X9265Y8410D01*
X9301Y8419D01*
X9346Y8430D01*
X9392Y8442D01*
X9430Y8453D01*
X9461Y8464D01*
X9484Y8475D01*
X9508Y8489D01*
X9529Y8505D01*
X9546Y8523D01*
X9561Y8542D01*
X9572Y8562D01*
X9579Y8584D01*
X9584Y8607D01*
X9586Y8631D01*
X9584Y8657D01*
X9578Y8683D01*
X9568Y8708D01*
X9555Y8732D01*
X9538Y8754D01*
X9517Y8774D01*
X9493Y8790D01*
X9465Y8804D01*
X9435Y8814D01*
X9403Y8822D01*
X9369Y8827D01*
X9334Y8828D01*
X9295Y8826D01*
X9259Y8822D01*
X9225Y8814D01*
X9193Y8802D01*
X9165Y8788D01*
X9140Y8771D01*
X9118Y8750D01*
X9100Y8727D01*
X9085Y8701D01*
X9075Y8674D01*
X9068Y8645D01*
X9065Y8614D01*
X9156Y8607D01*
X9161Y8639D01*
X9172Y8667D01*
X9186Y8690D01*
X9205Y8710D01*
X9229Y8725D01*
X9257Y8736D01*
X9291Y8742D01*
X9330Y8745D01*
X9370Y8743D01*
X9404Y8737D01*
X9433Y8727D01*
X9455Y8713D01*
X9472Y8696D01*
X9485Y8678D01*
X9492Y8659D01*
X9494Y8637D01*
X9493Y8619D01*
X9487Y8602D01*
X9479Y8587D01*
X9467Y8574D01*
X9447Y8561D01*
X9417Y8548D01*
X9376Y8536D01*
X9324Y8523D01*
X9271Y8510D01*
X9226Y8498D01*
X9191Y8487D01*
X9165Y8477D01*
X9136Y8462D01*
X9111Y8444D01*
X9090Y8425D01*
X9073Y8404D01*
X9060Y8381D01*
X9051Y8356D01*
X9045Y8330D01*
X9043Y8302D01*
X9045Y8274D01*
X9051Y8247D01*
X9062Y8220D01*
X9076Y8194D01*
X9094Y8171D01*
X9116Y8150D01*
X9141Y8131D01*
X9170Y8116D01*
X9202Y8104D01*
X9235Y8095D01*
X9271Y8090D01*
X9308Y8088D01*
X9355Y8090D01*
X9397Y8095D01*
X9436Y8104D01*
X9471Y8116D01*
X9502Y8132D01*
X9529Y8152D01*
X9553Y8175D01*
X9574Y8201D01*
X9590Y8231D01*
X9602Y8262D01*
X9610Y8295D01*
X9613Y8330D01*
X9613Y8330D01*
X9006Y7901D02*
X9006Y7965D01*
X8424Y7965D01*
X8424Y7901D01*
X9006Y7901D01*
X9006Y7901D01*
X8342Y8100D02*
X8342Y8816D01*
X8247Y8816D01*
X8247Y8100D01*
X8342Y8100D01*
X8342Y8100D01*
X10068Y0450D02*
X10346Y1166D01*
X10243Y1166D01*
X10057Y0646D01*
X10046Y0615D01*
X10036Y0585D01*
X10027Y0556D01*
X10019Y0529D01*
X10011Y0558D01*
X10001Y0587D01*
X9992Y0617D01*
X9981Y0646D01*
X9787Y1166D01*
X9691Y1166D01*
X9971Y0450D01*
X10068Y0450D01*
X10068Y0450D01*
X9095Y0701D02*
X9000Y0677D01*
X9018Y0622D01*
X9042Y0574D01*
X9072Y0533D01*
X9108Y0499D01*
X9148Y0472D01*
X9194Y0453D01*
X9243Y0442D01*
X9297Y0438D01*
X9352Y0441D01*
X9402Y0450D01*
X9446Y0464D01*
X9485Y0485D01*
X9519Y0511D01*
X9549Y0543D01*
X9574Y0579D01*
X9595Y0621D01*
X9612Y0667D01*
X9624Y0714D01*
X9631Y0763D01*
X9633Y0813D01*
X9631Y0867D01*
X9623Y0918D01*
X9609Y0965D01*
X9590Y1008D01*
X9567Y1047D01*
X9539Y1082D01*
X9506Y1111D01*
X9469Y1135D01*
X9428Y1154D01*
X9386Y1167D01*
X9342Y1175D01*
X9295Y1178D01*
X9244Y1175D01*
X9196Y1164D01*
X9153Y1147D01*
X9115Y1123D01*
X9081Y1093D01*
X9052Y1058D01*
X9030Y1016D01*
X9013Y0970D01*
X9106Y0948D01*
X9120Y0984D01*
X9136Y1015D01*
X9156Y1041D01*
X9178Y1061D01*
X9203Y1077D01*
X9232Y1088D01*
X9263Y1095D01*
X9297Y1097D01*
X9337Y1095D01*
X9373Y1087D01*
X9406Y1075D01*
X9435Y1057D01*
X9461Y1036D01*
X9482Y1011D01*
X9500Y0983D01*
X9513Y0951D01*
X9523Y0918D01*
X9530Y0884D01*
X9534Y0849D01*
X9536Y0814D01*
X9534Y0770D01*
X9529Y0728D01*
X9521Y0690D01*
X9509Y0654D01*
X9494Y0622D01*
X9475Y0595D01*
X9452Y0572D01*
X9426Y0553D01*
X9398Y0538D01*
X9368Y0527D01*
X9337Y0521D01*
X9305Y0519D01*
X9266Y0522D01*
X9231Y0530D01*
X9199Y0545D01*
X9170Y0565D01*
X9144Y0590D01*
X9124Y0622D01*
X9107Y0659D01*
X9095Y0701D01*
X9095Y0701D01*
X8373Y0701D02*
X8278Y0677D01*
X8296Y0622D01*
X8320Y0574D01*
X8350Y0533D01*
X8385Y0499D01*
X8426Y0472D01*
X8471Y0453D01*
X8521Y0442D01*
X8575Y0438D01*
X8630Y0441D01*
X8680Y0450D01*
X8724Y0464D01*
X8763Y0485D01*
X8797Y0511D01*
X8827Y0543D01*
X8852Y0579D01*
X8873Y0621D01*
X8890Y0667D01*
X8902Y0714D01*
X8909Y0763D01*
X8911Y0813D01*
X8908Y0867D01*
X8900Y0918D01*
X8887Y0965D01*
X8868Y1008D01*
X8845Y1047D01*
X8817Y1082D01*
X8784Y1111D01*
X8747Y1135D01*
X8706Y1154D01*
X8664Y1167D01*
X8619Y1175D01*
X8573Y1178D01*
X8522Y1175D01*
X8474Y1164D01*
X8431Y1147D01*
X8392Y1123D01*
X8359Y1093D01*
X8330Y1058D01*
X8308Y1016D01*
X8290Y0970D01*
X8384Y0948D01*
X8398Y0984D01*
X8414Y1015D01*
X8434Y1041D01*
X8456Y1061D01*
X8481Y1077D01*
X8509Y1088D01*
X8541Y1095D01*
X8575Y1097D01*
X8615Y1095D01*
X8651Y1087D01*
X8684Y1075D01*
X8713Y1057D01*
X8739Y1036D01*
X8760Y1011D01*
X8778Y0983D01*
X8791Y0951D01*
X8801Y0918D01*
X8808Y0884D01*
X8812Y0849D01*
X8813Y0814D01*
X8812Y0770D01*
X8807Y0728D01*
X8798Y0690D01*
X8787Y0654D01*
X8772Y0622D01*
X8753Y0595D01*
X8730Y0572D01*
X8704Y0553D01*
X8675Y0538D01*
X8646Y0527D01*
X8615Y0521D01*
X8582Y0519D01*
X8544Y0522D01*
X8509Y0530D01*
X8477Y0545D01*
X8448Y0565D01*
X8422Y0590D01*
X8401Y0622D01*
X8385Y0659D01*
X8373Y0701D01*
X8373Y0701D01*
X2871Y8025D02*
X2594Y8398D01*
X2838Y8741D01*
X2725Y8741D01*
X2595Y8557D01*
X2576Y8530D01*
X2561Y8507D01*
X2548Y8486D01*
X2538Y8469D01*
X2525Y8489D01*
X2511Y8509D01*
X2497Y8530D01*
X2481Y8551D01*
X2337Y8741D01*
X2234Y8741D01*
X2485Y8403D01*
X2214Y8025D01*
X2332Y8025D01*
X2512Y8280D01*
X2519Y8292D01*
X2527Y8303D01*
X2535Y8316D01*
X2543Y8328D01*
X2554Y8310D01*
X2563Y8295D01*
X2571Y8283D01*
X2577Y8275D01*
X2757Y8025D01*
X2871Y8025D01*
X2871Y8025D01*
X2163Y8255D02*
X2074Y8263D01*
X2069Y8237D01*
X2063Y8214D01*
X2055Y8193D01*
X2044Y8175D01*
X2031Y8158D01*
X2015Y8144D01*
X1995Y8130D01*
X1972Y8119D01*
X1947Y8110D01*
X1920Y8103D01*
X1892Y8099D01*
X1862Y8098D01*
X1836Y8099D01*
X1811Y8102D01*
X1788Y8107D01*
X1767Y8114D01*
X1747Y8123D01*
X1730Y8133D01*
X1716Y8145D01*
X1705Y8158D01*
X1696Y8172D01*
X1690Y8187D01*
X1686Y8203D01*
X1685Y8219D01*
X1686Y8236D01*
X1689Y8251D01*
X1696Y8265D01*
X1704Y8278D01*
X1715Y8290D01*
X1730Y8301D01*
X1748Y8311D01*
X1769Y8320D01*
X1787Y8327D01*
X1815Y8335D01*
X1851Y8344D01*
X1896Y8355D01*
X1942Y8367D01*
X1980Y8378D01*
X2011Y8389D01*
X2034Y8400D01*
X2058Y8414D01*
X2079Y8430D01*
X2096Y8448D01*
X2111Y8467D01*
X2122Y8487D01*
X2129Y8509D01*
X2134Y8532D01*
X2136Y8556D01*
X2134Y8582D01*
X2128Y8608D01*
X2118Y8633D01*
X2105Y8657D01*
X2088Y8679D01*
X2067Y8699D01*
X2043Y8715D01*
X2015Y8729D01*
X1985Y8739D01*
X1953Y8747D01*
X1919Y8752D01*
X1884Y8753D01*
X1845Y8751D01*
X1809Y8747D01*
X1775Y8739D01*
X1743Y8727D01*
X1715Y8713D01*
X1690Y8696D01*
X1668Y8675D01*
X1650Y8652D01*
X1635Y8626D01*
X1625Y8599D01*
X1618Y8570D01*
X1615Y8539D01*
X1706Y8532D01*
X1711Y8564D01*
X1722Y8592D01*
X1736Y8615D01*
X1755Y8635D01*
X1779Y8650D01*
X1807Y8661D01*
X1841Y8667D01*
X1880Y8670D01*
X1920Y8668D01*
X1954Y8662D01*
X1983Y8652D01*
X2005Y8638D01*
X2022Y8621D01*
X2035Y8603D01*
X2042Y8584D01*
X2044Y8562D01*
X2043Y8544D01*
X2037Y8527D01*
X2029Y8512D01*
X2017Y8499D01*
X1997Y8486D01*
X1967Y8473D01*
X1926Y8461D01*
X1874Y8448D01*
X1821Y8435D01*
X1776Y8423D01*
X1741Y8412D01*
X1715Y8402D01*
X1686Y8387D01*
X1661Y8369D01*
X1640Y8350D01*
X1623Y8329D01*
X1610Y8306D01*
X1601Y8281D01*
X1595Y8255D01*
X1593Y8227D01*
X1595Y8199D01*
X1601Y8172D01*
X1612Y8145D01*
X1626Y8119D01*
X1644Y8096D01*
X1666Y8075D01*
X1691Y8056D01*
X1720Y8041D01*
X1752Y8029D01*
X1785Y8020D01*
X1821Y8015D01*
X1858Y8013D01*
X1905Y8015D01*
X1947Y8020D01*
X1986Y8029D01*
X2021Y8041D01*
X2052Y8057D01*
X2079Y8077D01*
X2103Y8100D01*
X2124Y8126D01*
X2140Y8156D01*
X2152Y8187D01*
X2160Y8220D01*
X2163Y8255D01*
X2163Y8255D01*
X1556Y7826D02*
X1556Y7890D01*
X0974Y7890D01*
X0974Y7826D01*
X1556Y7826D01*
X1556Y7826D01*
X0936Y8374D02*
X0931Y8458D01*
X0913Y8533D01*
X0883Y8597D01*
X0841Y8653D01*
X0789Y8697D01*
X0731Y8728D01*
X0666Y8747D01*
X0594Y8754D01*
X0545Y8751D01*
X0499Y8742D01*
X0456Y8727D01*
X0415Y8706D01*
X0378Y8680D01*
X0345Y8649D01*
X0317Y8614D01*
X0294Y8574D01*
X0275Y8530D01*
X0262Y8484D01*
X0255Y8434D01*
X0252Y8382D01*
X0255Y8329D01*
X0263Y8279D01*
X0277Y8232D01*
X0296Y8187D01*
X0320Y8147D01*
X0349Y8112D01*
X0382Y8082D01*
X0420Y8057D01*
X0461Y8038D01*
X0504Y8024D01*
X0529Y8019D01*
X0544Y8099D01*
X0497Y8113D01*
X0456Y8136D01*
X0419Y8169D01*
X0388Y8211D01*
X0367Y8260D01*
X0354Y8317D01*
X0350Y8382D01*
X0351Y8425D01*
X0357Y8464D01*
X0366Y8501D01*
X0379Y8535D01*
X0396Y8566D01*
X0415Y8593D01*
X0439Y8616D01*
X0466Y8636D01*
X0495Y8652D01*
X0526Y8663D01*
X0559Y8670D01*
X0593Y8672D01*
X0642Y8668D01*
X0687Y8655D01*
X0728Y8633D01*
X0766Y8603D01*
X0798Y8563D01*
X0821Y8511D01*
X0834Y8447D01*
X0839Y8372D01*
X0839Y8372D01*
X0834Y8311D01*
X0821Y8257D01*
X0800Y8209D01*
X0769Y8168D01*
X0732Y8136D01*
X0691Y8112D01*
X0645Y8099D01*
X0595Y8094D01*
X0544Y8099D01*
X0529Y8019D01*
X0548Y8016D01*
X0594Y8013D01*
X0643Y8016D01*
X0690Y8025D01*
X0734Y8040D01*
X0775Y8062D01*
X0812Y8088D01*
X0845Y8119D01*
X0873Y8155D01*
X0895Y8195D01*
X0913Y8238D01*
X0926Y8282D01*
X0934Y8327D01*
X0936Y8374D01*
X0936Y8374D01*
X2505Y10630D02*
X2416Y10638D01*
X2411Y10612D01*
X2405Y10589D01*
X2397Y10568D01*
X2386Y10550D01*
X2373Y10533D01*
X2357Y10519D01*
X2337Y10505D01*
X2314Y10494D01*
X2289Y10485D01*
X2262Y10478D01*
X2234Y10474D01*
X2204Y10473D01*
X2178Y10474D01*
X2153Y10477D01*
X2130Y10482D01*
X2109Y10489D01*
X2089Y10498D01*
X2072Y10508D01*
X2058Y10520D01*
X2047Y10533D01*
X2038Y10547D01*
X2032Y10562D01*
X2028Y10578D01*
X2027Y10594D01*
X2028Y10611D01*
X2031Y10626D01*
X2038Y10640D01*
X2046Y10653D01*
X2057Y10665D01*
X2072Y10676D01*
X2090Y10686D01*
X2111Y10695D01*
X2129Y10702D01*
X2157Y10710D01*
X2193Y10719D01*
X2238Y10730D01*
X2284Y10742D01*
X2322Y10753D01*
X2353Y10764D01*
X2376Y10775D01*
X2400Y10789D01*
X2421Y10805D01*
X2438Y10823D01*
X2453Y10842D01*
X2464Y10862D01*
X2471Y10884D01*
X2476Y10907D01*
X2478Y10931D01*
X2476Y10957D01*
X2470Y10983D01*
X2460Y11008D01*
X2447Y11032D01*
X2430Y11054D01*
X2409Y11074D01*
X2385Y11090D01*
X2357Y11104D01*
X2327Y11114D01*
X2295Y11122D01*
X2261Y11127D01*
X2226Y11128D01*
X2187Y11126D01*
X2151Y11122D01*
X2117Y11114D01*
X2085Y11102D01*
X2057Y11088D01*
X2032Y11071D01*
X2010Y11050D01*
X1992Y11027D01*
X1977Y11001D01*
X1967Y10974D01*
X1960Y10945D01*
X1957Y10914D01*
X2048Y10907D01*
X2053Y10939D01*
X2064Y10967D01*
X2078Y10990D01*
X2097Y11010D01*
X2121Y11025D01*
X2149Y11036D01*
X2183Y11042D01*
X2222Y11045D01*
X2262Y11043D01*
X2296Y11037D01*
X2325Y11027D01*
X2347Y11013D01*
X2364Y10996D01*
X2377Y10978D01*
X2384Y10959D01*
X2386Y10937D01*
X2385Y10919D01*
X2379Y10902D01*
X2371Y10887D01*
X2359Y10874D01*
X2339Y10861D01*
X2309Y10848D01*
X2268Y10836D01*
X2216Y10823D01*
X2163Y10810D01*
X2118Y10798D01*
X2083Y10787D01*
X2057Y10777D01*
X2028Y10762D01*
X2003Y10744D01*
X1982Y10725D01*
X1965Y10704D01*
X1952Y10681D01*
X1943Y10656D01*
X1937Y10630D01*
X1935Y10602D01*
X1937Y10574D01*
X1943Y10547D01*
X1954Y10520D01*
X1968Y10494D01*
X1986Y10471D01*
X2008Y10450D01*
X2033Y10431D01*
X2062Y10416D01*
X2094Y10404D01*
X2127Y10395D01*
X2163Y10390D01*
X2200Y10388D01*
X2247Y10390D01*
X2289Y10395D01*
X2328Y10404D01*
X2363Y10416D01*
X2394Y10432D01*
X2421Y10452D01*
X2445Y10475D01*
X2466Y10501D01*
X2482Y10531D01*
X2494Y10562D01*
X2502Y10595D01*
X2505Y10630D01*
X2505Y10630D01*
X1295Y10651D02*
X1200Y10627D01*
X1218Y10572D01*
X1242Y10524D01*
X1272Y10483D01*
X1308Y10449D01*
X1348Y10422D01*
X1394Y10403D01*
X1443Y10392D01*
X1497Y10388D01*
X1552Y10391D01*
X1602Y10400D01*
X1646Y10414D01*
X1685Y10435D01*
X1719Y10461D01*
X1749Y10493D01*
X1774Y10529D01*
X1795Y10571D01*
X1812Y10617D01*
X1824Y10664D01*
X1831Y10713D01*
X1833Y10763D01*
X1831Y10817D01*
X1823Y10868D01*
X1809Y10915D01*
X1790Y10958D01*
X1767Y10997D01*
X1739Y11032D01*
X1706Y11061D01*
X1669Y11085D01*
X1628Y11104D01*
X1586Y11117D01*
X1542Y11125D01*
X1495Y11128D01*
X1444Y11125D01*
X1396Y11114D01*
X1353Y11097D01*
X1315Y11073D01*
X1281Y11043D01*
X1252Y11008D01*
X1230Y10966D01*
X1213Y10920D01*
X1306Y10898D01*
X1320Y10934D01*
X1336Y10965D01*
X1356Y10991D01*
X1378Y11011D01*
X1403Y11027D01*
X1432Y11038D01*
X1463Y11045D01*
X1497Y11047D01*
X1537Y11045D01*
X1573Y11037D01*
X1606Y11025D01*
X1635Y11007D01*
X1661Y10986D01*
X1682Y10961D01*
X1700Y10933D01*
X1713Y10901D01*
X1723Y10868D01*
X1730Y10834D01*
X1734Y10799D01*
X1736Y10764D01*
X1734Y10720D01*
X1729Y10678D01*
X1721Y10640D01*
X1709Y10604D01*
X1694Y10572D01*
X1675Y10545D01*
X1652Y10522D01*
X1626Y10503D01*
X1598Y10488D01*
X1568Y10477D01*
X1537Y10471D01*
X1505Y10469D01*
X1466Y10472D01*
X1431Y10480D01*
X1399Y10495D01*
X1370Y10515D01*
X1344Y10540D01*
X1324Y10572D01*
X1307Y10609D01*
X1295Y10651D01*
X1295Y10651D01*
X1088Y10400D02*
X1088Y11116D01*
X0993Y11116D01*
X0993Y10484D01*
X0640Y10484D01*
X0640Y10400D01*
X1088Y10400D01*
X1088Y10400D01*
X10013Y3281D02*
X10013Y3365D01*
X9710Y3365D01*
X9710Y3100D01*
X9745Y3074D01*
X9781Y3051D01*
X9817Y3032D01*
X9854Y3016D01*
X9891Y3004D01*
X9929Y2995D01*
X9967Y2990D01*
X10006Y2988D01*
X10058Y2991D01*
X10107Y2999D01*
X10153Y3013D01*
X10198Y3033D01*
X10238Y3058D01*
X10273Y3088D01*
X10303Y3123D01*
X10328Y3164D01*
X10347Y3208D01*
X10361Y3254D01*
X10369Y3303D01*
X10372Y3354D01*
X10369Y3406D01*
X10361Y3456D01*
X10347Y3503D01*
X10328Y3550D01*
X10304Y3592D01*
X10275Y3628D01*
X10241Y3659D01*
X10202Y3684D01*
X10160Y3703D01*
X10114Y3717D01*
X10065Y3725D01*
X10013Y3728D01*
X9975Y3726D01*
X9939Y3722D01*
X9905Y3714D01*
X9873Y3703D01*
X9843Y3689D01*
X9817Y3673D01*
X9794Y3654D01*
X9775Y3633D01*
X9758Y3609D01*
X9743Y3581D01*
X9731Y3550D01*
X9720Y3516D01*
X9806Y3492D01*
X9814Y3518D01*
X9824Y3541D01*
X9834Y3561D01*
X9846Y3578D01*
X9859Y3593D01*
X9875Y3606D01*
X9893Y3618D01*
X9914Y3628D01*
X9937Y3636D01*
X9961Y3642D01*
X9986Y3646D01*
X10013Y3647D01*
X10044Y3646D01*
X10073Y3642D01*
X10100Y3636D01*
X10125Y3627D01*
X10148Y3617D01*
X10168Y3604D01*
X10186Y3591D01*
X10202Y3575D01*
X10215Y3559D01*
X10227Y3541D01*
X10238Y3523D01*
X10247Y3504D01*
X10259Y3470D01*
X10267Y3435D01*
X10272Y3398D01*
X10274Y3360D01*
X10272Y3314D01*
X10266Y3272D01*
X10256Y3234D01*
X10241Y3200D01*
X10223Y3170D01*
X10201Y3144D01*
X10175Y3122D01*
X10145Y3104D01*
X10113Y3091D01*
X10080Y3081D01*
X10046Y3075D01*
X10011Y3073D01*
X9981Y3075D01*
X9951Y3079D01*
X9921Y3087D01*
X9891Y3097D01*
X9864Y3109D01*
X9840Y3121D01*
X9819Y3134D01*
X9802Y3147D01*
X9802Y3281D01*
X10013Y3281D01*
X10013Y3281D01*
X9571Y3000D02*
X9571Y3716D01*
X9474Y3716D01*
X9098Y3154D01*
X9098Y3716D01*
X9007Y3716D01*
X9007Y3000D01*
X9104Y3000D01*
X9480Y3563D01*
X9480Y3000D01*
X9571Y3000D01*
X9571Y3000D01*
X8848Y3000D02*
X8848Y3716D01*
X8603Y3716D01*
X8603Y3631D01*
X8753Y3631D01*
X8753Y3084D01*
X8753Y3084D01*
X8600Y3084D01*
X8567Y3085D01*
X8537Y3088D01*
X8511Y3092D01*
X8489Y3098D01*
X8470Y3105D01*
X8453Y3114D01*
X8438Y3123D01*
X8425Y3135D01*
X8409Y3153D01*
X8395Y3174D01*
X8383Y3198D01*
X8372Y3225D01*
X8364Y3255D01*
X8358Y3288D01*
X8355Y3324D01*
X8354Y3363D01*
X8356Y3416D01*
X8363Y3463D01*
X8374Y3502D01*
X8391Y3536D01*
X8410Y3564D01*
X8431Y3586D01*
X8455Y3604D01*
X8480Y3617D01*
X8502Y3623D01*
X8530Y3628D01*
X8563Y3630D01*
X8603Y3631D01*
X8603Y3716D01*
X8601Y3716D01*
X8562Y3715D01*
X8528Y3713D01*
X8498Y3710D01*
X8474Y3706D01*
X8444Y3697D01*
X8417Y3686D01*
X8392Y3671D01*
X8369Y3654D01*
X8342Y3629D01*
X8319Y3600D01*
X8300Y3568D01*
X8284Y3532D01*
X8272Y3493D01*
X8263Y3452D01*
X8258Y3408D01*
X8256Y3362D01*
X8257Y3322D01*
X8261Y3285D01*
X8267Y3250D01*
X8275Y3217D01*
X8285Y3187D01*
X8297Y3160D01*
X8310Y3135D01*
X8324Y3113D01*
X8339Y3094D01*
X8355Y3076D01*
X8372Y3061D01*
X8389Y3048D01*
X8408Y3037D01*
X8428Y3027D01*
X8450Y3019D01*
X8475Y3012D01*
X8500Y3007D01*
X8528Y3003D01*
X8558Y3001D01*
X8590Y3000D01*
X8848Y3000D01*
X8848Y3000D01*
X7394Y0630D02*
X7307Y0643D01*
X7302Y0619D01*
X7293Y0597D01*
X7282Y0579D01*
X7267Y0563D01*
X7248Y0551D01*
X7226Y0543D01*
X7201Y0537D01*
X7173Y0536D01*
X7145Y0537D01*
X7120Y0542D01*
X7100Y0549D01*
X7083Y0560D01*
X7070Y0573D01*
X7061Y0587D01*
X7056Y0602D01*
X7054Y0618D01*
X7056Y0632D01*
X7060Y0645D01*
X7068Y0656D01*
X7080Y0665D01*
X7092Y0671D01*
X7111Y0678D01*
X7137Y0686D01*
X7170Y0695D01*
X7214Y0707D01*
X7251Y0717D01*
X7281Y0728D01*
X7304Y0737D01*
X7321Y0747D01*
X7337Y0758D01*
X7350Y0771D01*
X7360Y0786D01*
X7369Y0802D01*
X7375Y0819D01*
X7378Y0837D01*
X7380Y0856D01*
X7379Y0873D01*
X7376Y0889D01*
X7371Y0905D01*
X7364Y0920D01*
X7355Y0934D01*
X7345Y0947D01*
X7333Y0959D01*
X7321Y0969D01*
X7309Y0976D01*
X7296Y0983D01*
X7281Y0989D01*
X7265Y0995D01*
X7247Y0999D01*
X7228Y1003D01*
X7209Y1005D01*
X7189Y1005D01*
X7159Y1004D01*
X7131Y1001D01*
X7105Y0995D01*
X7081Y0988D01*
X7060Y0978D01*
X7041Y0967D01*
X7026Y0954D01*
X7013Y0940D01*
X7003Y0924D01*
X6995Y0905D01*
X6988Y0884D01*
X6983Y0860D01*
X7069Y0848D01*
X7073Y0867D01*
X7080Y0884D01*
X7090Y0898D01*
X7103Y0911D01*
X7118Y0920D01*
X7137Y0927D01*
X7158Y0932D01*
X7182Y0933D01*
X7210Y0932D01*
X7234Y0928D01*
X7254Y0922D01*
X7269Y0913D01*
X7280Y0903D01*
X7288Y0891D01*
X7293Y0879D01*
X7295Y0866D01*
X7294Y0858D01*
X7292Y0850D01*
X7289Y0842D01*
X7284Y0835D01*
X7278Y0829D01*
X7270Y0822D01*
X7261Y0817D01*
X7250Y0812D01*
X7240Y0809D01*
X7224Y0804D01*
X7202Y0797D01*
X7173Y0789D01*
X7129Y0778D01*
X7093Y0767D01*
X7064Y0757D01*
X7042Y0749D01*
X7025Y0740D01*
X7010Y0729D01*
X6996Y0717D01*
X6985Y0703D01*
X6975Y0686D01*
X6969Y0669D01*
X6965Y0649D01*
X6964Y0627D01*
X6965Y0606D01*
X6970Y0585D01*
X6978Y0564D01*
X6989Y0545D01*
X7003Y0526D01*
X7021Y0510D01*
X7040Y0496D01*
X7063Y0485D01*
X7088Y0475D01*
X7115Y0469D01*
X7143Y0465D01*
X7173Y0463D01*
X7220Y0466D01*
X7262Y0474D01*
X7297Y0487D01*
X7327Y0505D01*
X7351Y0529D01*
X7370Y0557D01*
X7385Y0591D01*
X7394Y0630D01*
X7394Y0630D01*
X6863Y0275D02*
X6873Y0358D01*
X6859Y0354D01*
X6846Y0352D01*
X6834Y0350D01*
X6822Y0350D01*
X6809Y0351D01*
X6796Y0352D01*
X6785Y0355D01*
X6776Y0360D01*
X6767Y0365D01*
X6760Y0371D01*
X6753Y0379D01*
X6747Y0387D01*
X6742Y0396D01*
X6736Y0410D01*
X6729Y0429D01*
X6720Y0453D01*
X6718Y0457D01*
X6717Y0462D01*
X6715Y0467D01*
X6712Y0474D01*
X6909Y0994D01*
X6814Y0994D01*
X6706Y0693D01*
X6696Y0664D01*
X6686Y0635D01*
X6677Y0604D01*
X6669Y0573D01*
X6661Y0603D01*
X6652Y0633D01*
X6643Y0662D01*
X6632Y0691D01*
X6522Y0994D01*
X6434Y0994D01*
X6631Y0466D01*
X6646Y0427D01*
X6659Y0394D01*
X6671Y0368D01*
X6680Y0349D01*
X6692Y0328D01*
X6705Y0311D01*
X6719Y0296D01*
X6734Y0285D01*
X6750Y0276D01*
X6767Y0270D01*
X6786Y0266D01*
X6806Y0265D01*
X6819Y0265D01*
X6833Y0267D01*
X6848Y0271D01*
X6863Y0275D01*
X6863Y0275D01*
X6361Y0475D02*
X6361Y1191D01*
X6273Y1191D01*
X6273Y0475D01*
X6361Y0475D01*
X6361Y0475D01*
X6041Y0475D02*
X6200Y0994D01*
X6109Y0994D01*
X6027Y0694D01*
X5996Y0583D01*
X5993Y0593D01*
X5988Y0614D01*
X5980Y0646D01*
X5969Y0690D01*
X5886Y0994D01*
X5796Y0994D01*
X5718Y0693D01*
X5693Y0594D01*
X5663Y0694D01*
X5574Y0994D01*
X5488Y0994D01*
X5651Y0475D01*
X5742Y0475D01*
X5824Y0786D01*
X5844Y0874D01*
X5949Y0475D01*
X6041Y0475D01*
X6041Y0475D01*
X5060Y0642D02*
X4969Y0631D01*
X4982Y0593D01*
X5000Y0560D01*
X5022Y0531D01*
X5048Y0507D01*
X5080Y0488D01*
X5115Y0474D01*
X5154Y0466D01*
X5197Y0463D01*
X5251Y0468D01*
X5299Y0481D01*
X5341Y0503D01*
X5377Y0533D01*
X5407Y0572D01*
X5427Y0618D01*
X5440Y0670D01*
X5444Y0730D01*
X5440Y0792D01*
X5427Y0846D01*
X5406Y0893D01*
X5377Y0933D01*
X5340Y0965D01*
X5299Y0987D01*
X5253Y1001D01*
X5202Y1005D01*
X5194Y1005D01*
X5201Y0933D01*
X5230Y0930D01*
X5257Y0923D01*
X5281Y0910D01*
X5303Y0892D01*
X5321Y0871D01*
X5335Y0845D01*
X5344Y0816D01*
X5348Y0784D01*
X5348Y0784D01*
X5059Y0784D01*
X5063Y0815D01*
X5070Y0841D01*
X5080Y0864D01*
X5092Y0882D01*
X5114Y0904D01*
X5140Y0920D01*
X5169Y0930D01*
X5201Y0933D01*
X5194Y1005D01*
X5152Y1001D01*
X5107Y0988D01*
X5067Y0965D01*
X5032Y0934D01*
X5003Y0895D01*
X4982Y0849D01*
X4970Y0796D01*
X4966Y0735D01*
X4966Y0731D01*
X4966Y0725D01*
X4966Y0719D01*
X4966Y0712D01*
X5353Y0712D01*
X5348Y0672D01*
X5339Y0636D01*
X5324Y0606D01*
X5305Y0581D01*
X5282Y0561D01*
X5256Y0547D01*
X5228Y0538D01*
X5196Y0536D01*
X5173Y0537D01*
X5152Y0542D01*
X5132Y0550D01*
X5114Y0561D01*
X5098Y0576D01*
X5083Y0594D01*
X5071Y0616D01*
X5060Y0642D01*
X5060Y0642D01*
X4894Y0630D02*
X4807Y0643D01*
X4801Y0619D01*
X4793Y0597D01*
X4781Y0579D01*
X4766Y0563D01*
X4748Y0551D01*
X4726Y0543D01*
X4701Y0537D01*
X4673Y0536D01*
X4644Y0537D01*
X4620Y0542D01*
X4599Y0549D01*
X4583Y0560D01*
X4570Y0573D01*
X4561Y0587D01*
X4555Y0602D01*
X4553Y0618D01*
X4555Y0632D01*
X4560Y0645D01*
X4568Y0656D01*
X4579Y0665D01*
X4592Y0671D01*
X4611Y0678D01*
X4637Y0686D01*
X4669Y0695D01*
X4714Y0707D01*
X4751Y0717D01*
X4781Y0728D01*
X4803Y0737D01*
X4821Y0747D01*
X4836Y0758D01*
X4849Y0771D01*
X4860Y0786D01*
X4868Y0802D01*
X4874Y0819D01*
X4878Y0837D01*
X4879Y0856D01*
X4878Y0873D01*
X4875Y0889D01*
X4870Y0905D01*
X4863Y0920D01*
X4855Y0934D01*
X4844Y0947D01*
X4833Y0959D01*
X4820Y0969D01*
X4809Y0976D01*
X4796Y0983D01*
X4781Y0989D01*
X4764Y0995D01*
X4746Y0999D01*
X4727Y1003D01*
X4708Y1005D01*
X4688Y1005D01*
X4659Y1004D01*
X4631Y1001D01*
X4605Y0995D01*
X4581Y0988D01*
X4559Y0978D01*
X4541Y0967D01*
X4525Y0954D01*
X4513Y0940D01*
X4503Y0924D01*
X4494Y0905D01*
X4488Y0884D01*
X4483Y0860D01*
X4568Y0848D01*
X4573Y0867D01*
X4580Y0884D01*
X4590Y0898D01*
X4602Y0911D01*
X4618Y0920D01*
X4636Y0927D01*
X4658Y0932D01*
X4682Y0933D01*
X4710Y0932D01*
X4734Y0928D01*
X4753Y0922D01*
X4768Y0913D01*
X4780Y0903D01*
X4788Y0891D01*
X4792Y0879D01*
X4794Y0866D01*
X4793Y0858D01*
X4791Y0850D01*
X4788Y0842D01*
X4783Y0835D01*
X4777Y0829D01*
X4770Y0822D01*
X4760Y0817D01*
X4750Y0812D01*
X4740Y0809D01*
X4724Y0804D01*
X4701Y0797D01*
X4672Y0789D01*
X4629Y0778D01*
X4593Y0767D01*
X4564Y0757D01*
X4542Y0749D01*
X4524Y0740D01*
X4509Y0729D01*
X4496Y0717D01*
X4484Y0703D01*
X4475Y0686D01*
X4468Y0669D01*
X4464Y0649D01*
X4463Y0627D01*
X4465Y0606D01*
X4469Y0585D01*
X4477Y0564D01*
X4489Y0545D01*
X4503Y0526D01*
X4520Y0510D01*
X4540Y0496D01*
X4563Y0485D01*
X4588Y0475D01*
X4614Y0469D01*
X4642Y0465D01*
X4672Y0463D01*
X4720Y0466D01*
X4761Y0474D01*
X4797Y0487D01*
X4826Y0505D01*
X4850Y0529D01*
X4869Y0557D01*
X4884Y0591D01*
X4894Y0630D01*
X4894Y0630D01*
X4167Y0554D02*
X4154Y0476D01*
X4172Y0473D01*
X4189Y0470D01*
X4205Y0469D01*
X4220Y0468D01*
X4243Y0469D01*
X4263Y0472D01*
X4280Y0477D01*
X4295Y0483D01*
X4307Y0491D01*
X4317Y0501D01*
X4325Y0511D01*
X4332Y0523D01*
X4336Y0539D01*
X4340Y0561D01*
X4342Y0591D01*
X4342Y0627D01*
X4342Y0925D01*
X4407Y0925D01*
X4407Y0994D01*
X4342Y0994D01*
X4342Y1122D01*
X4255Y1175D01*
X4255Y0994D01*
X4167Y0994D01*
X4167Y0925D01*
X4255Y0925D01*
X4255Y0622D01*
X4255Y0605D01*
X4254Y0591D01*
X4252Y0581D01*
X4250Y0574D01*
X4248Y0569D01*
X4244Y0564D01*
X4240Y0560D01*
X4235Y0557D01*
X4229Y0554D01*
X4222Y0552D01*
X4214Y0551D01*
X4205Y0550D01*
X4197Y0550D01*
X4188Y0551D01*
X4178Y0552D01*
X4167Y0554D01*
X4167Y0554D01*
X4116Y0630D02*
X4029Y0643D01*
X4024Y0619D01*
X4015Y0597D01*
X4003Y0579D01*
X3988Y0563D01*
X3970Y0551D01*
X3948Y0543D01*
X3923Y0537D01*
X3895Y0536D01*
X3866Y0537D01*
X3842Y0542D01*
X3821Y0549D01*
X3805Y0560D01*
X3792Y0573D01*
X3783Y0587D01*
X3777Y0602D01*
X3776Y0618D01*
X3777Y0632D01*
X3782Y0645D01*
X3790Y0656D01*
X3801Y0665D01*
X3814Y0671D01*
X3833Y0678D01*
X3859Y0686D01*
X3891Y0695D01*
X3936Y0707D01*
X3973Y0717D01*
X4003Y0728D01*
X4025Y0737D01*
X4043Y0747D01*
X4058Y0758D01*
X4071Y0771D01*
X4082Y0786D01*
X4090Y0802D01*
X4096Y0819D01*
X4100Y0837D01*
X4101Y0856D01*
X4100Y0873D01*
X4097Y0889D01*
X4092Y0905D01*
X4085Y0920D01*
X4077Y0934D01*
X4067Y0947D01*
X4055Y0959D01*
X4042Y0969D01*
X4031Y0976D01*
X4018Y0983D01*
X4003Y0989D01*
X3986Y0995D01*
X3968Y0999D01*
X3950Y1003D01*
X3930Y1005D01*
X3910Y1005D01*
X3881Y1004D01*
X3853Y1001D01*
X3827Y0995D01*
X3803Y0988D01*
X3782Y0978D01*
X3763Y0967D01*
X3747Y0954D01*
X3735Y0940D01*
X3725Y0924D01*
X3716Y0905D01*
X3710Y0884D01*
X3705Y0860D01*
X3791Y0848D01*
X3795Y0867D01*
X3802Y0884D01*
X3812Y0898D01*
X3825Y0911D01*
X3840Y0920D01*
X3858Y0927D01*
X3880Y0932D01*
X3904Y0933D01*
X3932Y0932D01*
X3956Y0928D01*
X3975Y0922D01*
X3990Y0913D01*
X4002Y0903D01*
X4010Y0891D01*
X4015Y0879D01*
X4016Y0866D01*
X4016Y0858D01*
X4014Y0850D01*
X4010Y0842D01*
X4005Y0835D01*
X3999Y0829D01*
X3992Y0822D01*
X3983Y0817D01*
X3972Y0812D01*
X3962Y0809D01*
X3946Y0804D01*
X3923Y0797D01*
X3894Y0789D01*
X3851Y0778D01*
X3815Y0767D01*
X3786Y0757D01*
X3764Y0749D01*
X3747Y0740D01*
X3731Y0729D01*
X3718Y0717D01*
X3706Y0703D01*
X3697Y0686D01*
X3690Y0669D01*
X3686Y0649D01*
X3685Y0627D01*
X3687Y0606D01*
X3692Y0585D01*
X3700Y0564D01*
X3711Y0545D01*
X3725Y0526D01*
X3742Y0510D01*
X3762Y0496D01*
X3785Y0485D01*
X3810Y0475D01*
X3836Y0469D01*
X3864Y0465D01*
X3894Y0463D01*
X3942Y0466D01*
X3983Y0474D01*
X4019Y0487D01*
X4048Y0505D01*
X4072Y0529D01*
X4092Y0557D01*
X4106Y0591D01*
X4116Y0630D01*
X4116Y0630D01*
X10280Y10580D02*
X10191Y10588D01*
X10186Y10562D01*
X10180Y10539D01*
X10172Y10518D01*
X10161Y10500D01*
X10148Y10483D01*
X10132Y10469D01*
X10112Y10455D01*
X10089Y10444D01*
X10064Y10435D01*
X10037Y10428D01*
X10009Y10424D01*
X9979Y10423D01*
X9953Y10424D01*
X9928Y10427D01*
X9905Y10432D01*
X9884Y10439D01*
X9864Y10448D01*
X9847Y10458D01*
X9833Y10470D01*
X9822Y10483D01*
X9813Y10497D01*
X9807Y10512D01*
X9803Y10528D01*
X9802Y10544D01*
X9803Y10561D01*
X9806Y10576D01*
X9813Y10590D01*
X9821Y10603D01*
X9832Y10615D01*
X9847Y10626D01*
X9865Y10636D01*
X9886Y10645D01*
X9904Y10652D01*
X9932Y10660D01*
X9968Y10669D01*
X10013Y10680D01*
X10059Y10692D01*
X10097Y10703D01*
X10128Y10714D01*
X10151Y10725D01*
X10175Y10739D01*
X10196Y10755D01*
X10213Y10773D01*
X10228Y10792D01*
X10239Y10812D01*
X10246Y10834D01*
X10251Y10857D01*
X10253Y10881D01*
X10251Y10907D01*
X10245Y10933D01*
X10235Y10958D01*
X10222Y10982D01*
X10205Y11004D01*
X10184Y11024D01*
X10160Y11040D01*
X10132Y11054D01*
X10102Y11064D01*
X10070Y11072D01*
X10036Y11077D01*
X10001Y11078D01*
X9962Y11076D01*
X9926Y11072D01*
X9892Y11064D01*
X9860Y11052D01*
X9832Y11038D01*
X9807Y11021D01*
X9785Y11000D01*
X9767Y10977D01*
X9752Y10951D01*
X9742Y10924D01*
X9735Y10895D01*
X9732Y10864D01*
X9823Y10857D01*
X9828Y10889D01*
X9839Y10917D01*
X9853Y10940D01*
X9872Y10960D01*
X9896Y10975D01*
X9924Y10986D01*
X9958Y10992D01*
X9997Y10995D01*
X10037Y10993D01*
X10071Y10987D01*
X10100Y10977D01*
X10122Y10963D01*
X10139Y10946D01*
X10152Y10928D01*
X10159Y10909D01*
X10161Y10887D01*
X10160Y10869D01*
X10154Y10852D01*
X10146Y10837D01*
X10134Y10824D01*
X10114Y10811D01*
X10084Y10798D01*
X10043Y10786D01*
X9991Y10773D01*
X9938Y10760D01*
X9893Y10748D01*
X9858Y10737D01*
X9832Y10727D01*
X9803Y10712D01*
X9778Y10694D01*
X9757Y10675D01*
X9740Y10654D01*
X9727Y10631D01*
X9718Y10606D01*
X9712Y10580D01*
X9710Y10552D01*
X9712Y10524D01*
X9718Y10497D01*
X9729Y10470D01*
X9743Y10444D01*
X9761Y10421D01*
X9783Y10400D01*
X9808Y10381D01*
X9837Y10366D01*
X9869Y10354D01*
X9902Y10345D01*
X9938Y10340D01*
X9975Y10338D01*
X10022Y10340D01*
X10064Y10345D01*
X10103Y10354D01*
X10138Y10366D01*
X10169Y10382D01*
X10196Y10402D01*
X10220Y10425D01*
X10241Y10451D01*
X10257Y10481D01*
X10269Y10512D01*
X10277Y10545D01*
X10280Y10580D01*
X10280Y10580D01*
X9070Y10601D02*
X8975Y10577D01*
X8993Y10522D01*
X9017Y10474D01*
X9047Y10433D01*
X9083Y10399D01*
X9123Y10372D01*
X9169Y10353D01*
X9218Y10342D01*
X9272Y10338D01*
X9327Y10341D01*
X9377Y10350D01*
X9421Y10364D01*
X9460Y10385D01*
X9494Y10411D01*
X9524Y10443D01*
X9549Y10479D01*
X9570Y10521D01*
X9587Y10567D01*
X9599Y10614D01*
X9606Y10663D01*
X9608Y10713D01*
X9606Y10767D01*
X9598Y10818D01*
X9584Y10865D01*
X9565Y10908D01*
X9542Y10947D01*
X9514Y10982D01*
X9481Y11011D01*
X9444Y11035D01*
X9403Y11054D01*
X9361Y11067D01*
X9317Y11075D01*
X9270Y11078D01*
X9219Y11075D01*
X9171Y11064D01*
X9128Y11047D01*
X9090Y11023D01*
X9056Y10993D01*
X9027Y10958D01*
X9005Y10916D01*
X8988Y10870D01*
X9081Y10848D01*
X9095Y10884D01*
X9111Y10915D01*
X9131Y10941D01*
X9153Y10961D01*
X9178Y10977D01*
X9207Y10988D01*
X9238Y10995D01*
X9272Y10997D01*
X9312Y10995D01*
X9348Y10987D01*
X9381Y10975D01*
X9410Y10957D01*
X9436Y10936D01*
X9457Y10911D01*
X9475Y10883D01*
X9488Y10851D01*
X9498Y10818D01*
X9505Y10784D01*
X9509Y10749D01*
X9511Y10714D01*
X9509Y10670D01*
X9504Y10628D01*
X9496Y10590D01*
X9484Y10554D01*
X9469Y10522D01*
X9450Y10495D01*
X9427Y10472D01*
X9401Y10453D01*
X9373Y10438D01*
X9343Y10427D01*
X9312Y10421D01*
X9280Y10419D01*
X9241Y10422D01*
X9206Y10430D01*
X9174Y10445D01*
X9145Y10465D01*
X9119Y10490D01*
X9099Y10522D01*
X9082Y10559D01*
X9070Y10601D01*
X9070Y10601D01*
X8863Y10350D02*
X8863Y11066D01*
X8768Y11066D01*
X8768Y10434D01*
X8415Y10434D01*
X8415Y10350D01*
X8863Y10350D01*
X8863Y10350D01*
X10255Y5755D02*
X10166Y5763D01*
X10161Y5737D01*
X10155Y5714D01*
X10147Y5693D01*
X10136Y5675D01*
X10123Y5658D01*
X10107Y5644D01*
X10087Y5630D01*
X10064Y5619D01*
X10039Y5610D01*
X10012Y5603D01*
X9984Y5599D01*
X9954Y5598D01*
X9928Y5599D01*
X9903Y5602D01*
X9880Y5607D01*
X9859Y5614D01*
X9839Y5623D01*
X9822Y5633D01*
X9808Y5645D01*
X9797Y5658D01*
X9788Y5672D01*
X9782Y5687D01*
X9778Y5703D01*
X9777Y5719D01*
X9778Y5736D01*
X9781Y5751D01*
X9788Y5765D01*
X9796Y5778D01*
X9807Y5790D01*
X9822Y5801D01*
X9840Y5811D01*
X9861Y5820D01*
X9879Y5827D01*
X9907Y5835D01*
X9943Y5844D01*
X9988Y5855D01*
X10034Y5867D01*
X10072Y5878D01*
X10103Y5889D01*
X10126Y5900D01*
X10150Y5914D01*
X10171Y5930D01*
X10188Y5948D01*
X10203Y5967D01*
X10214Y5987D01*
X10221Y6009D01*
X10226Y6032D01*
X10228Y6056D01*
X10226Y6082D01*
X10220Y6108D01*
X10210Y6133D01*
X10197Y6157D01*
X10180Y6179D01*
X10159Y6199D01*
X10135Y6215D01*
X10107Y6229D01*
X10077Y6239D01*
X10045Y6247D01*
X10011Y6252D01*
X9976Y6253D01*
X9937Y6251D01*
X9901Y6247D01*
X9867Y6239D01*
X9835Y6227D01*
X9807Y6213D01*
X9782Y6196D01*
X9760Y6175D01*
X9742Y6152D01*
X9727Y6126D01*
X9717Y6099D01*
X9710Y6070D01*
X9707Y6039D01*
X9798Y6032D01*
X9803Y6064D01*
X9814Y6092D01*
X9828Y6115D01*
X9847Y6135D01*
X9871Y6150D01*
X9899Y6161D01*
X9933Y6167D01*
X9972Y6170D01*
X10012Y6168D01*
X10046Y6162D01*
X10075Y6152D01*
X10097Y6138D01*
X10114Y6121D01*
X10127Y6103D01*
X10134Y6084D01*
X10136Y6062D01*
X10135Y6044D01*
X10129Y6027D01*
X10121Y6012D01*
X10109Y5999D01*
X10089Y5986D01*
X10059Y5973D01*
X10018Y5961D01*
X9966Y5948D01*
X9913Y5935D01*
X9868Y5923D01*
X9833Y5912D01*
X9807Y5902D01*
X9778Y5887D01*
X9753Y5869D01*
X9732Y5850D01*
X9715Y5829D01*
X9702Y5806D01*
X9693Y5781D01*
X9687Y5755D01*
X9685Y5727D01*
X9687Y5699D01*
X9693Y5672D01*
X9704Y5645D01*
X9718Y5619D01*
X9736Y5596D01*
X9758Y5575D01*
X9783Y5556D01*
X9812Y5541D01*
X9844Y5529D01*
X9877Y5520D01*
X9913Y5515D01*
X9950Y5513D01*
X9997Y5515D01*
X10039Y5520D01*
X10078Y5529D01*
X10113Y5541D01*
X10144Y5557D01*
X10171Y5577D01*
X10195Y5600D01*
X10216Y5626D01*
X10232Y5656D01*
X10244Y5687D01*
X10252Y5720D01*
X10255Y5755D01*
X10255Y5755D01*
X9556Y5525D02*
X9556Y6241D01*
X9311Y6241D01*
X9311Y6156D01*
X9461Y6156D01*
X9461Y5609D01*
X9461Y5609D01*
X9308Y5609D01*
X9275Y5610D01*
X9245Y5613D01*
X9219Y5617D01*
X9197Y5623D01*
X9178Y5630D01*
X9161Y5639D01*
X9146Y5648D01*
X9133Y5660D01*
X9117Y5678D01*
X9103Y5699D01*
X9091Y5723D01*
X9081Y5750D01*
X9072Y5780D01*
X9066Y5813D01*
X9063Y5849D01*
X9062Y5888D01*
X9064Y5941D01*
X9071Y5988D01*
X9082Y6027D01*
X9099Y6061D01*
X9118Y6089D01*
X9139Y6111D01*
X9163Y6129D01*
X9188Y6142D01*
X9210Y6148D01*
X9238Y6153D01*
X9271Y6155D01*
X9311Y6156D01*
X9311Y6241D01*
X9309Y6241D01*
X9270Y6240D01*
X9236Y6238D01*
X9206Y6235D01*
X9182Y6231D01*
X9152Y6222D01*
X9125Y6211D01*
X9100Y6196D01*
X9077Y6179D01*
X9050Y6154D01*
X9027Y6125D01*
X9008Y6093D01*
X8992Y6057D01*
X8980Y6018D01*
X8971Y5977D01*
X8966Y5933D01*
X8964Y5887D01*
X8965Y5847D01*
X8969Y5810D01*
X8975Y5775D01*
X8983Y5742D01*
X8993Y5712D01*
X9005Y5685D01*
X9018Y5660D01*
X9032Y5638D01*
X9047Y5619D01*
X9063Y5601D01*
X9080Y5586D01*
X9097Y5573D01*
X9116Y5562D01*
X9136Y5552D01*
X9158Y5544D01*
X9183Y5537D01*
X9209Y5532D01*
X9236Y5528D01*
X9266Y5526D01*
X9298Y5525D01*
X9556Y5525D01*
X9556Y5525D01*
X8912Y5525D02*
X8656Y6192D01*
X8589Y6166D01*
X8596Y6131D01*
X8605Y6097D01*
X8615Y6063D01*
X8627Y6029D01*
X8706Y5819D01*
X8706Y5819D01*
X8463Y5819D01*
X8538Y6017D01*
X8554Y6060D01*
X8568Y6099D01*
X8579Y6135D01*
X8589Y6166D01*
X8656Y6192D01*
X8637Y6241D01*
X8535Y6241D01*
X8242Y5525D01*
X8350Y5525D01*
X8434Y5742D01*
X8733Y5742D01*
X8812Y5525D01*
X8912Y5525D01*
X8912Y5525D01*
G37*
M02*